#!OML:ASF E:\emotionWalksFemale\Project 1\Capture day 1\Session 1\Female1.ASF
:FULLY-SPECIFIED
:DEGREES
2298
root 9.24619 15.47 -36.8089 2.72215 3.9651 -3.55936
lowerback 8.64997 0.709539 -4.07746
upperback 1.65678 0.630429 1.60328
thorax -3.19179 0.35869 3.89284
lowerneck -3.9424 -6.00718 -7.25512
upperneck -8.68818 -7.39455 8.9207
head -1.45382 -3.64264 4.18847
rclavicle 1.24737e-014 -2.78299e-015
rhumerus -30.2705 -5.89322 -79.1254
rradius 35.3542
rwrist 18.5588
rhand -2.58541 -52.3746
rfingers 7.12502
rthumb 23.1118 -1161.01
lclavicle 1.24737e-014 -2.78299e-015
lhumerus -32.924 14.919 81.0411
lradius 37.299
lwrist -11.5051
lhand 1.28858 -32.0055
lfingers 7.12502
lthumb 26.824 -3.88802
rfemur -10.2404 4.74613 27.4598
rtibia 24.1697
rfoot -22.2143 -38.3141
rtoes 21.391
lfemur -15.7478 -15.0055 -19.1742
ltibia 31.1592
lfoot -23.9337 16.94
ltoes -5.9074
2299
root 9.26892 15.4701 -36.8074 2.75198 4.04909 -3.66629
lowerback 8.37722 0.81493 -4.05346
upperback 1.75856 0.782988 1.56873
thorax -2.94842 0.426735 3.82712
lowerneck -3.51719 -6.04741 -7.30097
upperneck -9.07266 -7.44692 9.10092
head -1.64338 -3.67957 4.29071
rclavicle -8.94531e-016 -3.57812e-015
rhumerus -30.261 -6.11626 -78.9759
rradius 35.2232
rwrist 18.0098
rhand -3.33471 -51.285
rfingers 7.12502
rthumb 22.3927 -1160.01
lclavicle -8.94531e-016 -3.57812e-015
lhumerus -32.6461 14.621 81.2489
lradius 37.2031
lwrist -11.6272
lhand 1.20845 -32.0481
lfingers 7.12502
lthumb 26.7473 -3.91884
rfemur -10.2708 4.70512 27.4783
rtibia 24.1894
rfoot -21.6538 -37.5955
rtoes 24.8911
lfemur -15.8153 -14.9838 -19.1416
ltibia 31.2175
lfoot -23.8841 17.0156
ltoes -7.26158
2300
root 9.28791 15.4692 -36.8087 2.73882 4.04012 -3.67058
lowerback 8.82071 0.92266 -3.96723
upperback 1.43385 0.905714 1.35626
thorax -3.54031 0.504926 3.53837
lowerneck -2.91437 -6.08315 -7.24316
upperneck -9.02266 -7.52832 9.21855
head -1.72468 -3.73626 4.34423
rclavicle 4.02539e-015 -3.65764e-014
rhumerus -31.0283 -6.34071 -78.9548
rradius 35.3271
rwrist 18.0292
rhand -2.90874 -52.3382
rfingers 7.12502
rthumb 22.8015 -1161.01
lclavicle 4.02539e-015 -3.65764e-014
lhumerus -33.0939 14.1121 81.0529
lradius 37.2234
lwrist -11.5778
lhand 1.01547 -32.375
lfingers 7.12502
lthumb 26.5627 -4.21767
rfemur -10.2702 4.79085 27.394
rtibia 24.2116
rfoot -22.4758 -38.2526
rtoes 23.4047
lfemur -15.8048 -14.7535 -19.2326
ltibia 31.2611
lfoot -23.8418 16.9456
ltoes -8.26885
2301
root 9.30707 15.4685 -36.8101 2.72336 4.08982 -3.67431
lowerback 8.95526 0.831743 -4.23163
upperback 1.69995 0.759056 1.39257
thorax -3.32829 0.425556 3.74368
lowerneck -4.19474 -6.07848 -7.12278
upperneck -8.57125 -7.47613 9.06916
head -1.36189 -3.68458 4.19895
rclavicle 9.93923e-016 7.95139e-016
rhumerus -30.351 -6.10912 -79.0228
rradius 35.1672
rwrist 18.266
rhand -2.42909 -53.5037
rfingers 7.12502
rthumb 23.2618 -1162.12
lclavicle 9.93923e-016 7.95139e-016
lhumerus -32.6545 14.4577 81.1357
lradius 37.387
lwrist -11.3269
lhand 0.183062 -32.7796
lfingers 7.12502
lthumb 25.7657 -4.50416
rfemur -10.2694 4.8503 27.316
rtibia 24.2428
rfoot -22.9872 -38.6252
rtoes 22.0809
lfemur -15.8085 -14.6434 -19.3229
ltibia 31.2966
lfoot -23.7969 16.8723
ltoes -8.69733
2302
root 9.32955 15.4692 -36.808 2.7688 4.15512 -3.74662
lowerback 8.60018 0.850836 -4.48627
upperback 1.66878 0.775115 1.373
thorax -3.16759 0.43276 3.86736
lowerneck -3.17837 -5.94769 -6.75644
upperneck -9.00094 -7.34635 9.0342
head -1.71094 -3.65193 4.17793
rclavicle -6.95746e-015 -4.77083e-015
rhumerus -30.658 -6.1174 -78.976
rradius 35.1914
rwrist 18.691
rhand -2.39264 -53.5961
rfingers 7.12502
rthumb 23.2968 -1162.21
lclavicle -6.95746e-015 -4.77083e-015
lhumerus -32.8749 14.2738 81.061
lradius 37.5315
lwrist -11.1348
lhand 0.584518 -32.8614
lfingers 7.12502
lthumb 26.1501 -4.64226
rfemur -10.325 4.74943 27.2948
rtibia 24.2728
rfoot -22.8932 -38.5582
rtoes 21.7741
lfemur -15.8831 -14.7315 -19.3222
ltibia 31.3218
lfoot -23.8151 16.8938
ltoes -8.5919
2303
root 9.35182 15.4683 -36.806 2.79253 4.15148 -3.8525
lowerback 8.72591 0.854093 -4.39748
upperback 1.6801 0.780237 1.32128
thorax -3.22448 0.435367 3.76171
lowerneck -3.46505 -5.90949 -6.92125
upperneck -8.78345 -7.27481 9.27325
head -1.57867 -3.60937 4.27563
rclavicle 1.30204e-014 -7.95139e-016
rhumerus -30.6787 -5.99556 -78.9973
rradius 35.2035
rwrist 18.7813
rhand -3.07149 -53.0573
rfingers 7.12502
rthumb 22.6454 -1161.75
lclavicle 1.30204e-014 -7.95139e-016
lhumerus -32.6694 14.4197 81.0587
lradius 37.4647
lwrist -11.2731
lhand 0.448753 -32.6948
lfingers 7.12502
lthumb 26.0201 -4.45656
rfemur -10.3839 4.57289 27.3014
rtibia 24.3105
rfoot -22.7044 -38.4115
rtoes 21.3731
lfemur -15.9164 -14.7812 -19.294
ltibia 31.3437
lfoot -23.8472 16.9187
ltoes -8.51356
